<?xml version="1.0" ?><svg height="183.80156mm" version="1.0" viewBox="0 0 494 347" width="261.66562mm" xmlns="http://www.w3.org/2000/svg">
  <g font-family="Helvetica" font-size="12pt" stroke-linecap="round" transform="translate(-75,-83)">
    <g stroke="#000000" stroke-width="1.0">
      <polygon fill="#000000" points="380.269557047 273.216860514 425.903459734 252.116658238 427.886117453 256.815495155 380.930442953 274.783139486" stroke="#000000"/>
    </g>
    <g stroke="#000000" stroke-width="1.7">
      <line x1="460.326450344" x2="477.477038157" y1="159.704818092" y2="130.0"/>
    </g>
    <g stroke="#000000" stroke-width="1.7">
      <line x1="169.221238938" x2="138.0" y1="225.229105211" y2="238.928956016"/>
    </g>
    <g stroke="#000000" stroke-width="5.1">
      <line x1="426.894788594" x2="460.0" y1="254.466076696" y2="269.183463468"/>
    </g>
    <g stroke="#000000" stroke-width="1.7">
      <line x1="380.6" x2="414.652900688" y1="274.0" y2="226.0"/>
    </g>
    <g stroke="#000000" stroke-width="1.7">
      <line x1="265.240527658" x2="248.326450344" y1="311.0" y2="340.295181908"/>
    </g>
    <g stroke="#000000" stroke-width="1.7">
      <line x1="248.326450344" x2="263.744936541" y1="340.295181908" y2="367.0"/>
    </g>
    <g stroke="#000000" stroke-width="1.7">
      <line x1="214.894788594" x2="248.0" y1="245.533923304" y2="230.816536532"/>
    </g>
    <g stroke="#000000" stroke-width="1.0">
      <polygon fill="#000000" points="169.922333798 224.748515993 204.756185269 272.558232344 200.549616108 275.441767656 168.520144078 225.70969443" stroke="#000000"/>
    </g>
    <g stroke="#000000" stroke-width="5.1">
      <line x1="202.652900688" x2="248.326450344" y1="274.0" y2="253.695181908"/>
    </g>
    <g stroke="#000000" stroke-width="1.7">
      <line x1="189.894788594" x2="221.0" y1="202.233923304" y2="184.274794316"/>
    </g>
    <g stroke="#000000" stroke-width="1.7">
      <line x1="475.508426041" x2="460.326450344" y1="186.0" y2="159.704818092"/>
    </g>
    <g stroke="#000000" stroke-width="1.7">
      <line x1="169.221238938" x2="214.894788594" y1="225.229105211" y2="245.533923304"/>
    </g>
    <g stroke="#000000" stroke-width="1.7">
      <line x1="214.894788594" x2="189.894788594" y1="245.533923304" y2="202.233923304"/>
    </g>
    <g stroke="#000000" stroke-width="1.7">
      <line x1="460.326450344" x2="423.0" y1="162.704818092" y2="162.704818092"/>
      <line x1="460.326450344" x2="423.0" y1="156.704818092" y2="156.704818092"/>
    </g>
    <g stroke="#000000" stroke-width="1.7">
      <line x1="401.894788594" x2="433.0" y1="297.766076696" y2="315.725205684"/>
    </g>
    <g stroke="#000000" stroke-width="1.7">
      <line x1="350.0" x2="380.6" y1="261.279445727" y2="274.0"/>
    </g>
    <g stroke="#000000" stroke-width="1.7">
      <ellipse cx="509.189052951" cy="227.524403896" rx="0.85" ry="0.85" stroke-width="1.0"/>
      <ellipse cx="514.03338182" cy="229.840048671" rx="0.85" ry="0.85" stroke-width="1.0"/>
      <ellipse cx="518.877710689" cy="232.155693446" rx="0.85" ry="0.85" stroke-width="1.0"/>
      <ellipse cx="523.722039557" cy="234.471338221" rx="0.85" ry="0.85" stroke-width="1.0"/>
      <ellipse cx="528.566368426" cy="236.786982995" rx="0.85" ry="0.85" stroke-width="1.0"/>
      <ellipse cx="533.410697295" cy="239.10262777" rx="0.85" ry="0.85" stroke-width="1.0"/>
      <ellipse cx="538.255026163" cy="241.418272545" rx="0.85" ry="0.85" stroke-width="1.0"/>
      <ellipse cx="543.099355032" cy="243.733917319" rx="0.85" ry="0.85" stroke-width="1.0"/>
      <ellipse cx="547.943683901" cy="246.049562094" rx="0.85" ry="0.85" stroke-width="1.0"/>
      <ellipse cx="552.78801277" cy="248.365206869" rx="0.85" ry="0.85" stroke-width="1.0"/>
      <ellipse cx="557.632341638" cy="250.680851644" rx="0.85" ry="0.85" stroke-width="1.0"/>
    </g>
    <g stroke="#000000" stroke-width="1.7">
      <line x1="460.326450344" x2="477.246091275" y1="246.304818092" y2="217.0"/>
    </g>
    <g stroke="#000000" stroke-width="1.7">
      <line x1="460.326450344" x2="506.0" y1="246.304818092" y2="226.0"/>
    </g>
    <g stroke="#000000" stroke-width="1.0">
      <polygon fill="#000000" points="506.70109486 226.480589219 486.167800709 259.441767656 481.961231549 256.558232344 505.29890514 225.519410781" stroke="#000000"/>
    </g>
    <g stroke="#000000" stroke-width="1.7">
      <line x1="248.326450344" x2="211.0" y1="343.295181908" y2="343.295181908"/>
      <line x1="248.326450344" x2="211.0" y1="337.295181908" y2="337.295181908"/>
    </g>
    <g stroke="#000000" stroke-width="1.7">
      <line x1="202.652900688" x2="173.0" y1="274.0" y2="269.76387133"/>
    </g>
    <g stroke="#000000" stroke-width="1.7">
      <line x1="248.326450344" x2="263.513989658" y1="253.695181908" y2="280.0"/>
    </g>
    <g stroke="#000000" stroke-width="1.0">
      <polygon fill="#000000" points="293.654704732 274.776705336 247.290564541 256.025297914 249.362336147 251.365065901 294.345295268 273.223294664" stroke="#000000"/>
    </g>
    <g stroke="#000000" stroke-width="1.7">
      <line x1="270.008064516" x2="294.0" y1="239.0" y2="274.0"/>
    </g>
    <g stroke="#000000" stroke-width="1.7">
      <line x1="426.894788594" x2="401.894788594" y1="254.466076696" y2="297.766076696"/>
    </g>
    <g stroke="#000000" stroke-width="1.7">
      <line x1="414.652900688" x2="460.326450344" y1="226.0" y2="246.304818092"/>
    </g>
    <g stroke="#000000" stroke-width="1.7">
      <line x1="294.0" x2="325.0" y1="274.0" y2="261.113163972"/>
    </g>
    <g stroke="#000000" stroke-width="1.7">
      <line x1="414.652900688" x2="385.0" y1="226.0" y2="230.23612867"/>
    </g>
    <g stroke="#000000" stroke-width="1.7">
      <ellipse cx="109.721377756" cy="237.12062109" rx="0.85" ry="0.85" stroke-width="1.0"/>
      <ellipse cx="104.720857196" cy="234.926397287" rx="0.85" ry="0.85" stroke-width="1.0"/>
      <ellipse cx="99.7203366353" cy="232.732173485" rx="0.85" ry="0.85" stroke-width="1.0"/>
      <ellipse cx="94.7198160751" cy="230.537949683" rx="0.85" ry="0.85" stroke-width="1.0"/>
      <ellipse cx="89.7192955149" cy="228.34372588" rx="0.85" ry="0.85" stroke-width="1.0"/>
      <ellipse cx="84.7187749547" cy="226.149502078" rx="0.85" ry="0.85" stroke-width="1.0"/>
    </g>
    <text fill="#000000" font-family="Arial" font-size="20pt" x="326.3" y="264.0">O</text>
    <text fill="#000000" font-family="Arial" font-size="20pt" x="461.3" y="282.770894789">O</text>
    <text fill="#000000" font-family="Arial" font-size="20pt" x="249.3" y="233.229105211">O</text>
    <text fill="#000000" font-family="Arial" font-size="20pt" x="114.3" y="252.229105211">O</text>
    <text fill="#000000" font-family="Arial" font-size="20pt" x="222.3" y="185.233923304">OH</text>
    <text fill="#000000" font-family="Arial" font-size="20pt" x="130.3" y="276.0">HO</text>
    <text fill="#000000" font-family="Arial" font-size="20pt" x="263.3" y="304.995181908">NH</text>
    <text fill="#000000" font-family="Arial" font-size="20pt" x="187.3" y="348.295181908">O</text>
    <text fill="#000000" font-family="Arial" font-size="20pt" x="262.3" y="391.595181908">CH</text>
    <text fill="#000000" font-family="Arial" font-size="16pt" x="299.3" y="397.595181908">3</text>
    <text fill="#000000" font-family="Arial" font-size="20pt" x="434.3" y="330.766076696">OH</text>
    <text fill="#000000" font-family="Arial" font-size="20pt" x="342.3" y="240.0">HO</text>
    <text fill="#000000" font-family="Arial" font-size="20pt" x="475.3" y="211.004818092">NH</text>
    <text fill="#000000" font-family="Arial" font-size="20pt" x="399.3" y="167.704818092">O</text>
    <text fill="#000000" font-family="Arial" font-size="20pt" x="474.3" y="124.404818092">CH</text>
    <text fill="#000000" font-family="Arial" font-size="16pt" x="511.3" y="130.404818092">3</text>
    <polyline fill="none" points="127,92 100,92 100,414 127,414 " stroke="#000000" stroke-width="1.7"/>
    <polyline fill="none" points="511,92 539,92 539,414 511,414 " stroke="#000000" stroke-width="1.7"/>
    <text fill="#000000" font-family="Arial" font-size="20pt" textLength="17" x="547" y="416.5">n</text>
  </g>
</svg>